Coordinates
version=1
nRows=11
nColumns=46
inDegrees=yes

Units are S.I. units (second, meters, Newtons, ...)
Angles are in degrees.

endheader
time	pelvis_tilt	pelvis_list	pelvis_rotation	pelvis_tx	pelvis_ty	pelvis_tz	bb_angle	bb_tx	bb_ty	bb_tz	hip_flexion_r	hip_adduction_r	hip_rotation_r	knee_angle_r	knee_angle_r_beta	ankle_angle_r	subtalar_angle_r	mtp_angle_r	crank_angle_r	hip_flexion_l	hip_adduction_l	hip_rotation_l	knee_angle_l	knee_angle_l_beta	ankle_angle_l	subtalar_angle_l	mtp_angle_l	crank_angle_l	lumbar_extension	lumbar_bending	lumbar_rotation	arm_flex_r	arm_add_r	arm_rot_r	elbow_flex_r	pro_sup_r	wrist_flex_r	wrist_dev_r	arm_flex_l	arm_add_l	arm_rot_l	elbow_flex_l	pro_sup_l	wrist_flex_l	wrist_dev_l
      5.00500000	    -31.81919859	     -0.86246893	      3.89308956	      0.37125642	      1.20631337	     -0.23301073	      0.00000000	      0.50000000	      0.00000000	      0.25000000	     60.97872378	     -6.56439061	     -4.95517501	     78.94962307	      1.37793087	    -19.04239118	    -12.95179711	      0.00000000	      0.00000000	     64.21864960	     -1.52702370	      3.72418975	     52.38130479	      0.91422624	     -0.31751739	     -7.16253995	      0.00000000	      0.00000000	    -63.68561498	      3.46877150	     -4.67079760	     62.85416574	    -14.23640243	     22.71656397	     86.76403625	     57.43552839	      0.00000000	      0.00000000	     47.90913511	    -29.39103571	     12.48488963	    106.23181337	     55.25710413	      0.00000000	      0.00000000
      5.01000000	    -31.84040607	     -1.40623585	      3.60947836	      0.37176323	      1.20443213	     -0.23337672	      0.00000000	      0.50000000	      0.00000000	      0.25000000	     62.25965729	     -6.24027219	     -5.24548546	     81.15670885	      1.41645178	    -18.51517139	    -13.18052125	      0.00000000	      0.00000000	     62.86373405	     -2.15865282	      3.83473081	     50.16570049	      0.87555665	     -1.14767121	     -6.70154049	      0.00000000	      0.00000000	    -63.40960559	      3.78508019	     -3.99897751	     62.88218513	    -14.13946679	     22.89538334	     86.68370271	     57.43624949	      0.00000000	      0.00000000	     47.19768393	    -29.11439362	     12.28344525	    106.19487563	     55.22867604	      0.00000000	      0.00000000
      5.01500000	    -31.82619643	     -1.94094683	      3.41493276	      0.37197870	      1.20237553	     -0.23377005	      0.00000000	      0.50000000	      0.00000000	      0.25000000	     63.58233553	     -5.99923100	     -5.54488552	     83.38287377	      1.45530569	    -18.10747697	    -13.32399128	      0.00000000	      0.00000000	     61.51503999	     -2.66653901	      4.08480897	     48.01791709	      0.83807075	     -2.06063487	     -6.41312772	      0.00000000	      0.00000000	    -63.12302465	      4.18901470	     -3.33551043	     62.91954197	    -14.07996725	     23.22086483	     86.50955066	     57.43984716	      0.00000000	      0.00000000	     46.40226215	    -28.41353767	     11.62351005	    106.16193859	     55.14538122	      0.00000000	      0.00000000
      5.02000000	    -31.80171137	     -2.52370541	      3.22404481	      0.37224399	      1.20028053	     -0.23423929	      0.00000000	      0.50000000	      0.00000000	      0.25000000	     64.91137160	     -5.79308294	     -5.92286571	     85.55225328	      1.49316850	    -17.66815275	    -13.34723279	      0.00000000	      0.00000000	     60.15315958	     -3.16684402	      4.35430412	     45.89801006	      0.80107140	     -3.15845128	     -6.80211758	      0.00000000	      0.00000000	    -62.78619487	      4.72278071	     -2.74409063	     63.23984184	    -14.05485961	     24.01646904	     86.07377622	     57.48202268	      0.00000000	      0.00000000	     45.21007647	    -27.19838651	      9.78519918	    106.15906561	     54.94230286	      0.00000000	      0.00000000
      5.02500000	    -31.68794557	     -3.12183127	      3.05302067	      0.37252077	      1.19822285	     -0.23449333	      0.00000000	      0.50000000	      0.00000000	      0.25000000	     66.16533116	     -5.48240378	     -6.24710111	     87.64415975	      1.52967916	    -17.38336825	    -13.61015684	      0.00000000	      0.00000000	     58.75273932	     -3.73634779	      4.60660783	     43.90421633	      0.76627313	     -4.05614759	     -6.47481177	      0.00000000	      0.00000000	    -62.54996792	      5.19613572	     -2.00375097	     63.29910320	    -14.00849598	     24.30925840	     85.85048171	     57.47580805	      0.00000000	      0.00000000	     44.50675062	    -26.89789076	      9.35507728	    106.07932942	     54.88229694	      0.00000000	      0.00000000
      5.03000000	    -31.54077173	     -3.67521360	      2.92203024	      0.37284246	      1.19637982	     -0.23494319	      0.00000000	      0.50000000	      0.00000000	      0.25000000	     67.40205597	     -5.24845307	     -6.51669636	     89.66339894	      1.56492153	    -17.01460227	    -13.70091359	      0.00000000	      0.00000000	     57.27918188	     -4.18569648	      4.90299855	     41.88287590	      0.73099408	     -5.19877069	     -6.88728044	      0.00000000	      0.00000000	    -62.35481331	      5.75800071	     -1.40367092	     63.66576775	    -13.99508038	     25.04175402	     85.34962798	     57.50232474	      0.00000000	      0.00000000	     43.63707923	    -26.00679814	      7.94229972	    105.92805044	     54.71026623	      0.00000000	      0.00000000
      5.03500000	    -31.34810826	     -4.16908108	      2.78690009	      0.37332023	      1.19480957	     -0.23548320	      0.00000000	      0.50000000	      0.00000000	      0.25000000	     68.58335184	     -4.99352515	     -6.66975519	     91.56757659	      1.59815570	    -16.70850071	    -13.77877358	      0.00000000	      0.00000000	     55.71328851	     -4.59053983	      5.17552083	     39.87091906	      0.69587881	     -6.26606442	     -7.17560414	      0.00000000	      0.00000000	    -62.22602889	      6.26464810	     -0.72199206	     63.81805033	    -14.04809181	     25.45218229	     85.04126191	     57.50467801	      0.00000000	      0.00000000	     42.96589389	    -25.33974726	      7.05112994	    105.68117552	     54.57350058	      0.00000000	      0.00000000
      5.04000000	    -31.21448598	     -4.80308058	      2.59800890	      0.37372690	      1.19307439	     -0.23573901	      0.00000000	      0.50000000	      0.00000000	      0.25000000	     69.84298040	     -4.59547049	     -6.91760954	     93.35380468	      1.62933126	    -16.45680584	    -13.85659686	      0.00000000	      0.00000000	     54.34572490	     -5.21738569	      5.36017385	     38.14353241	      0.66573023	     -6.95372830	     -6.90839088	      0.00000000	      0.00000000	    -62.06557546	      6.82327469	      0.19258021	     63.78682648	    -14.02317371	     25.54409255	     84.94844669	     57.47434963	      0.00000000	      0.00000000	     42.51603535	    -25.25201114	      6.82098688	    105.51690329	     54.50876655	      0.00000000	      0.00000000
      5.04500000	    -30.92195731	     -5.20926152	      2.56839445	      0.37434282	      1.19222521	     -0.23623453	      0.00000000	      0.50000000	      0.00000000	      0.25000000	     70.90134688	     -4.42641654	     -7.00707064	     95.02949021	      1.65857749	    -16.21587358	    -13.99295869	      0.00000000	      0.00000000	     52.59338674	     -5.53212953	      5.56156090	     35.98845638	      0.62811706	     -8.46839108	     -7.27276173	      0.00000000	      0.00000000	    -62.06349813	      7.32578115	      0.76513545	     63.85216084	    -14.19080037	     25.74032182	     84.81741086	     57.44459409	      0.00000000	      0.00000000	     41.87631569	    -24.52190071	      6.17320849	    105.03249422	     54.34111186	      0.00000000	      0.00000000
      5.05000000	    -30.45547510	     -5.48632215	      2.62663715	      0.37507134	      1.19183419	     -0.23699254	      0.00000000	      0.50000000	      0.00000000	      0.25000000	     71.76381900	     -4.42910051	     -6.98778602	     96.61520747	      1.68625348	    -15.90887120	    -13.84578170	      0.00000000	      0.00000000	     50.63154398	     -5.66721912	      5.75504649	     33.91049863	      0.59184985	     -9.95640332	     -8.34464418	      0.00000000	      0.00000000	    -62.27239411	      7.87580368	      1.29218685	     64.10918659	    -14.47869120	     26.24202296	     84.65226830	     57.45542534	      0.00000000	      0.00000000	     41.66403513	    -23.36189623	      5.08095949	    104.39586765	     54.09627104	      0.00000000	      0.00000000
      5.05500000	    -30.26363243	     -6.02151248	      2.57260328	      0.37561065	      1.19081010	     -0.23714161	      0.00000000	      0.50000000	      0.00000000	      0.25000000	     72.91890312	     -4.14869516	     -7.20314410	     98.06391596	      1.71153821	    -15.70322110	    -13.90420865	      0.00000000	      0.00000000	     49.24198499	     -6.26414805	      5.66194292	     32.36593885	      0.56489220	    -10.61208874	     -7.93027806	      0.00000000	      0.00000000	    -62.22296493	      8.50944539	      2.08206583	     64.09907076	    -14.49108039	     26.35730968	     84.60971283	     57.43404860	      0.00000000	      0.00000000	     41.28145831	    -23.24515983	      4.95986606	    104.19872245	     54.03815221	      0.00000000	      0.00000000
